# xmcd
#
# Track frame offsets:
#	150
#	14807
#	31159
#	47983
#	64939
#	84199
#	101088
#	116652
#	133921
#	151080
#
# Disc length: 2223 seconds
#
# Revision: 0
# Processed by: cddbd v1.5.2PL0 Copyright (c) Steve Scherf et al.
# Submitted via: dBpowerAMP V4.0
#
DISCID=8308ad0a
DTITLE=Lori Lampkin - That Place
DYEAR=2007
DGENRE=Country
TTITLE0=All That I Know
TTITLE1=Whatever Gets You Through
TTITLE2=That Place Where You Loved Me
TTITLE3=Once Was Enough
TTITLE4=Cling to Me
TTITLE5=Why Me?
TTITLE6=When He Sings
TTITLE7=More in Love
TTITLE8=When I`m Gone
TTITLE9=That Place Where You Loved Me (acoustic)
EXTD=
EXTT0=
EXTT1=
EXTT2=
EXTT3=
EXTT4=
EXTT5=
EXTT6=
EXTT7=
EXTT8=
EXTT9=
PLAYORDER=
